<svg width="93" height="89" viewBox="0 0 93 89" fill="none" xmlns="http://www.w3.org/2000/svg">
<rect x="4" y="2" width="89" height="87" rx="10" fill="black"/>
<path d="M38.8 53.35H29.15L26.75 62H18.85L29.15 28.3H39.15L49.6 62H41.4L38.8 53.35ZM30.25 47.65H37.7L35.6 40.5C35 38.5 34.4 36 33.9 34H33.8C33.3 36 32.8 38.55 32.25 40.5L30.25 47.65ZM74.7789 52.2H59.0289C59.2789 55.35 62.3789 56.85 65.9289 56.85C68.5289 56.85 70.6289 56.5 72.6789 55.85L73.6789 61C71.1789 62 68.1289 62.5 64.8289 62.5C56.5289 62.5 51.7789 57.7 51.7789 50.05C51.7789 43.85 55.6289 37 64.1289 37C72.0289 37 75.0289 43.15 75.0289 49.2C75.0289 50.5 74.8789 51.65 74.7789 52.2ZM58.9789 47H67.9789C67.9789 45.15 67.1789 42.05 63.6789 42.05C60.4789 42.05 59.1789 44.95 58.9789 47Z" fill="white"/>
</svg>
