<?xml version="1.0" encoding="UTF-8"?>
<svg id="Calque_1" data-name="Calque 1" xmlns="http://www.w3.org/2000/svg" viewBox="0 0 334.83 471.65">
  <path d="M304.4,433.69l-137.21,37.96-136.73-38L0,91.73l334.83-.08-30.43,342.03ZM81.74,375.13l85.75,23.71,85.75-23.84,11.45-128.42-152.71-.06-3.8-42.95h160.37s3.6-41.77,3.6-41.77H62.64s11.23,126.53,11.23,126.53l145.2-.02-4.7,54.39-47.43,12.81-46.34-12.66-3.19-34.81-41.77.07,6.1,67.01Z"/>
  <polygon points="220.89 64.08 220.44 33.39 206.06 55.26 191.54 33.63 190.97 64.07 170.2 63.96 170.22 .12 192.55 0 206.16 21.93 219.72 .1 242.2 .11 242.17 64.02 220.89 64.08"/>
  <polygon points="92.93 63.89 71.45 64.09 71.43 42.58 52.27 42.6 52.13 64.02 30.68 63.97 30.69 .09 52.17 .16 52.25 21.01 71.43 21.04 71.45 .1 92.92 .14 92.93 63.89"/>
  <polygon points="142.43 63.95 120.71 64.01 120.65 21.39 101.95 21.16 102.1 .02 161.2 .11 161.19 21.16 142.48 21.33 142.43 63.95"/>
  <polygon points="303.83 42.57 303.85 64.04 252.42 64.04 252.46 .04 274.19 .21 274.23 42.53 303.83 42.57"/>
</svg>