<svg width="87" height="87" viewBox="0 0 87 87" fill="none" xmlns="http://www.w3.org/2000/svg">
<rect width="87" height="87" rx="10" fill="black"/>
<path d="M39.8 51.35H30.15L27.75 60H19.85L30.15 26.3H40.15L50.6 60H42.4L39.8 51.35ZM31.25 45.65H38.7L36.6 38.5C36 36.5 35.4 34 34.9 32H34.8C34.3 34 33.8 36.55 33.25 38.5L31.25 45.65ZM62.1695 60H54.5695V35.55H62.1695V60ZM58.3695 24.9C60.8195 24.9 62.3695 26.55 62.4195 28.75C62.4195 30.85 60.8195 32.55 58.3195 32.55C55.9195 32.55 54.3195 30.85 54.3695 28.75C54.3195 26.55 55.9195 24.9 58.3695 24.9Z" fill="white"/>
</svg>
