<svg width="120" height="92" viewBox="0 0 120 92" fill="none" xmlns="http://www.w3.org/2000/svg">
<path d="M38.8 53.35H29.15L26.75 62H18.85L29.15 28.3H39.15L49.6 62H41.4L38.8 53.35ZM30.25 47.65H37.7L35.6 40.5C35 38.5 34.4 36 33.9 34H33.8C33.3 36 32.8 38.55 32.25 40.5L30.25 47.65ZM74.7789 52.2H59.0289C59.2789 55.35 62.3789 56.85 65.9289 56.85C68.5289 56.85 70.6289 56.5 72.6789 55.85L73.6789 61C71.1789 62 68.1289 62.5 64.8289 62.5C56.5289 62.5 51.7789 57.7 51.7789 50.05C51.7789 43.85 55.6289 37 64.1289 37C72.0289 37 75.0289 43.15 75.0289 49.2C75.0289 50.5 74.8789 51.65 74.7789 52.2ZM58.9789 47H67.9789C67.9789 45.15 67.1789 42.05 63.6789 42.05C60.4789 42.05 59.1789 44.95 58.9789 47Z" fill="white"/>
<rect x="12" y="5" width="87" height="87" rx="10" fill="black"/>
<path d="M38.3 31.3H45.95V65H38.3V31.3ZM68.2613 29.5H75.8613V57.7C75.8613 60.45 75.9613 63.35 76.0613 65H69.3113L68.9613 61.4H68.8613C67.3113 64.15 64.3613 65.55 61.2113 65.55C55.4113 65.55 50.7613 60.6 50.7613 53C50.7113 44.75 55.8613 40 61.7113 40C64.7113 40 67.0613 41.05 68.1613 42.75H68.2613V29.5ZM68.2613 54.1V50.9C68.2613 50.5 68.2113 49.95 68.1613 49.55C67.7113 47.5 66.0613 45.8 63.7113 45.8C60.2613 45.8 58.4613 48.9 58.4613 52.75C58.4613 56.9 60.5113 59.5 63.6613 59.5C65.8613 59.5 67.6113 58 68.0613 55.85C68.2113 55.3 68.2613 54.75 68.2613 54.1Z" fill="white"/>
</svg>
