<?xml version="1.0" encoding="UTF-8"?>
<svg id="Calque_1" data-name="Calque 1" xmlns="http://www.w3.org/2000/svg" viewBox="0 0 191.34 198.81">
  <path d="M46.81,198.81c-6.52.07-11.06-1.87-14.32-6.34l-27.46-35.58c-2.25-2.92-4.99-8.04-4.99-12.01L0,20.91c0-5.91,4.06-11.57,10.32-12.03L130.04.06c5.41-.4,10.89,1.17,15,4.04l42.36,29.62c1.7,1.19,3.94,4.03,3.94,6.29v138.83c0,5.95-4.3,11.45-10.7,11.84l-133.83,8.13ZM44.79,39.37l120.21-7.28c-6.89-6.62-13.89-10.86-21-16.15-4.15-3.09-9.11-5.22-15.12-4.78l-109.18,7.93c-1,.07-3.06,1.63-2.72,2.28.26.49,1.11,1.89,1.61,2.28l15.59,12.31c2.59,2.05,6.4,3.65,10.62,3.4ZM47.8,183.85l123.24-7.08c4.56-.26,7.29-3.33,7.29-7.97l-.02-117.74c0-4.38-3.4-5.97-6.97-5.76l-125.09,7.28c-3.97.23-6.83,2.44-6.83,6.58v117.45c0,4.21,3.4,7.52,8.38,7.23Z"/>
  <path d="M61.47,165.76c-1.91-2.34.64-5.52,3.24-6.34l6.1-1.94-.06-75.83-9.65-.85c-1.06-5.01,2.34-8.49,7.1-8.8l28.01-1.82,39.46,59.65.3-52.65-9.76-1.56c-1.39-3.09,1.78-7.1,5.35-7.32l26.61-1.62c.55.98.91,3.91.44,5.01s-2.75,2.03-4.16,2.4l-5,1.31v84.53c-5.64,3.08-11.68,5.71-18.33,3.61-2.64-.84-5.94-4.44-7.62-7.05l-37.92-58.91-.31,56.9,12.2,3.2c-.9,3.52-3.72,6.26-7.24,6.46l-28.75,1.62Z"/>
</svg>