<?xml version="1.0" encoding="UTF-8"?>
<svg id="Calque_1" xmlns="http://www.w3.org/2000/svg" version="1.1" viewBox="0 0 225 225">
  <!-- Generator: Adobe Illustrator 30.1.0, SVG Export Plug-In . SVG Version: 2.1.1 Build 136)  -->
  <defs>
    <style>
      .st0 {
        fill: #2f6e7c;
      }

      .st1 {
        fill: #408a42;
      }

      .st2 {
        fill: #429498;
      }

      .st3 {
        fill: #72ae45;
      }

      .st4 {
        fill: #344452;
      }
    </style>
  </defs>
  <path class="st4" d="M120,0c1,.6,2.9.6,5.1.9,52.1,5.6,93.3,47,99.1,99.1.3,2.3-.2,4.9.8,6.1v13c-1,1.2-.6,3.7-.9,6.1-5.7,52.2-46.9,93.3-99.1,99.1-2.3.3-4.9-.1-6.1.9h-13c-1.2-.9-3.7-.6-6-.9C47.8,218.4,6.5,177.2.9,125.1c-.2-2.1-.2-4.1-.9-5.1v-14c1.1-2.2.6-4.5.9-7.1C7.1,47.6,47.6,7,98.9,1c2.8-.3,5.2,0,7.1-1h14ZM103,11.7C46.3,17,6.1,67.5,11.7,122.8c5.6,55.3,55,95.8,110.2,90.6,55.6-5.3,96.6-54.7,91.4-110.3-5.2-55-54-96.6-110.3-91.3Z"/>
  <path class="st2" d="M169.9,151.9l-28.8-28.7-51.1,50.9c-1,1-4.3,1.3-5.3.4l-12.6-12.5c-.9-.9-1.3-4.2-.4-5.1l51.4-51.4h36c0,0,26.7,26.7,26.7,26.7,2.3,2.3,2.5,5.3,0,7.8l-10.8,10.8c-.8.8-4.3,2-5.2,1.1Z"/>
  <path class="st3" d="M66.2,118.4l-28-27.9c-1.1-1.1-.9-4.8.1-5.9l11.7-11.7c1.9-1.7,4.7-1.4,6.5.4l27.2,27.2,49.9-49.9c1-1,4.5-.9,5.5,0l12.2,12c1.3,1.4,1.6,4.2.1,5.7l-49.7,49.8-35.6.2Z"/>
  <path class="st0" d="M71.3,128.5h71.9v25.3h-71.6c-2.5,0-4.6-2.1-4.6-4.6v-16.5c0-2.3,1.9-4.2,4.2-4.2Z" transform="translate(-69 115.7) rotate(-45)"/>
  <path class="st1" d="M151.2,68.9l-49.4,49.3-18.1-17.6,48.8-50.1c1.6-1.7,4.3-1.7,6,0l11.8,11.5c2.6,1.7,2.6,5.3.9,7.1Z"/>
</svg>