<svg width="93" height="93" viewBox="0 0 93 93" fill="none" xmlns="http://www.w3.org/2000/svg">
<rect x="6" y="6" width="87" height="87" rx="10" fill="black"/>
<path d="M28.3 63V29.75C30.65 29.35 33.95 29.05 38.6 29.05C43.3 29.05 46.65 29.95 48.9 31.75C51.05 33.45 52.5 36.25 52.5 39.55C52.5 42.85 51.4 45.65 49.4 47.55C46.8 50 42.95 51.1 38.45 51.1C37.45 51.1 36.55 51.05 35.85 50.95V63H28.3ZM35.85 35.1V45.05C36.5 45.2 37.3 45.25 38.4 45.25C42.45 45.25 44.95 43.2 44.95 39.75C44.95 36.65 42.8 34.8 39 34.8C37.45 34.8 36.4 34.95 35.85 35.1ZM54.6285 61.8L55.9785 56.35C57.3785 57.2 60.2785 58.2 62.5285 58.2C64.8285 58.2 65.7785 57.4 65.7785 56.15C65.7785 54.9 65.0285 54.3 62.1785 53.35C57.1285 51.65 55.1785 48.9 55.2285 46C55.2285 41.45 59.1285 38 65.1785 38C68.0285 38 70.5785 38.65 72.0785 39.4L70.7285 44.65C69.6285 44.05 67.5285 43.25 65.4285 43.25C63.5785 43.25 62.5285 44 62.5285 45.25C62.5285 46.4 63.4785 47 66.4785 48.05C71.1285 49.65 73.0785 52 73.1285 55.6C73.1285 60.15 69.5285 63.5 62.5285 63.5C59.3285 63.5 56.4785 62.8 54.6285 61.8Z" fill="white"/>
</svg>
