<?xml version="1.0" encoding="UTF-8"?>
<svg id="Calque_1" data-name="Calque 1" xmlns="http://www.w3.org/2000/svg" viewBox="0 0 275.25 44.43">
  <path d="M101,18.28l-7.61,14.66c-.94,1.81-3.09,3.25-4.98,3.28-3.52.06-2.91-3.36-3.62-5.97l-4.01-14.68-2.89,18.94c-.31,2-6.89,1.88-6.66.13l4.88-30.35c2.52-.94,7-.95,9.96-.05l4.31,21.54,9.93-21.2c2.64-1.43,7.31-1.24,10.81-.24l-4.89,31.01c-1.6.33-4.54.6-5.68.44-2.25-.31,2.49-12.44.45-17.51Z"/>
  <path d="M148.15,27.58l-3.93,6.18c-.52.82-2.01,2.06-2.87,2.45s-3.28-.94-3.93-1.83l10.44-18.79,5.74-10.65c1.01-1.87,6.45-1.51,8.9-1.13l7.47,31.63c-1.31.47-4.4.91-5.43.33-2.64-1.5-1.57-7.78-4.01-7.84l-12.38-.34ZM159.21,22.05l-.82-7.64c-2.97.33-4.8,3.33-6.3,7.53l7.12.12Z"/>
  <path d="M221.58,17.78l-2.84,17.73c-.86.24-3.65.29-5.35.15l2.12-18-6.4.79-2.69,13.14c-.35,1.72-.67,4.27-1.87,4.57-1.5.37-4.36-1.05-4.18-2.29l3.27-22.12,25.42-.13c1.71,0,4.71,1.68,5.48,3,1.77,3.03-.66,15.95-1.62,20.45-.38,1.35-5.72,1.13-5.91.42l1.49-17.37-6.92-.35Z"/>
  <path d="M125.66,44.43l-13.27-.49c-1.38-1.67,1.02-5.36,3.38-5.33l9.6.1c.52,0,1.65-1.42,2.49-2.72l-10.13-.1c-1.6-.02-3.82-3.74-3.6-5.29l2.5-18.29c1.9-.17,4.55-.24,6.71-.2l-3.07,18.08,8.16-.37,2.34-14.34c.17-1.03,1.05-2.65,1.65-3.43.75-.96,5.33.17,5.13,1.69-1.04,7.83-2.63,17.69-4.29,25.62-.63,3.01-4.71,5.19-7.6,5.08Z"/>
  <path d="M194.1,35.67c-4.22.39-9.93.73-14.13.02-5.86-1-9.66-13.5-3.59-20.13,8.53-9.32,14.64,2.47,16.14-9.07l.66-5.05C193.34.31,196.42,0,198.88,0c-.6,6.3-1.1,12.08-2.07,18.3l-2.71,17.37ZM188.59,29.99l2.14-12.31-7.12.64c-4.12,1.8-4.86,6.89-4.07,11.16,1.99.72,6.45,1.01,9.05.51Z"/>
  <path d="M266.95,35.22l2.42-18.49-8.67.86-3.56,15.75c-.17.73-1.21,2.09-1.72,2.57-.69.65-3.76-.51-3.56-1.59l4.09-22.24,14.06-.29c3.32-.07,5.66,3.54,5.18,6.58l-2.62,16.39c-.21,1.31-5.7,1.77-5.62.46Z"/>
  <path d="M52.94,35.01l-1.81,6.7c-.32,1.19-3.87,1.04-5.69.8l4.16-26.32c5.45-.26,11.15-.35,16.03.36,3.36,5.44,2.39,13.2-2.78,17.18-1.85,1.42-6.06,1.14-9.91,1.28ZM60.06,20.12c-1.71-.4-5.16-.51-5.58-.45l-1.17,11.67c3.44,1.05,6.97.19,8.41-2.58,1.33-2.56,2.33-7.7-1.66-8.64Z"/>
  <path d="M20.85,28.92c-3.61,9.42-12.88,4.5-13.54,6.44l-1.03,3.05c-.55,1.64-1.15,3.36-1.9,4.2S-.12,42.36,0,41.4l4.23-25.32c5.16-.06,10.44-.57,14.61.53,4.86,1.28,3.27,9.04,2.01,12.32ZM15.02,20.13c-1.16-.59-4.53-.38-5.6-.17l-1.7,11.17c4.05,1.43,6.95.26,8.69-2.65,1.39-2.31,1.6-6.84-1.39-8.36Z"/>
  <path d="M37.62,34.88l1.76-14.24c-1.6-.82-4.9-.96-6.82-.48l-2.97,13.6c-.18.83-1.54,2.12-2.21,2.53s-3.29-1.37-3.13-2.3l4.25-24.48c.24-1.37,5.51-1.94,5.39-.6l-.62,7.16c4.19-.04,7.4.18,11.03,1.22-.5,5.83-1.33,10.42-2.36,15.64l-.46,2.31c-.15.74-3.98.57-3.87-.36Z"/>
  <path d="M246.36,34.73c-.28,1.54-5.4,1.73-6.47.55l3.97-22.65c.6-1.21,5.11-.99,6.48-.01l-3.97,22.11Z"/>
</svg>