<svg width="99" height="87" viewBox="0 0 99 87" fill="none" xmlns="http://www.w3.org/2000/svg">
<rect x="5.21051" width="88.5789" height="87" rx="7" fill="black"/>
<path d="M20.3004 41.1929C20.3004 51.705 26.7813 60.7895 36.1793 65.0944L22.7396 30.3848C21.1764 33.6877 20.3004 37.3428 20.3004 41.1929Z" fill="white"/>
<path d="M67.4948 39.8509C67.4948 36.5688 66.2441 34.2958 65.1713 32.5266C63.7431 30.339 62.4045 28.4864 62.4045 26.2988C62.4045 23.8575 64.3688 21.585 67.1356 21.585C67.2605 21.585 67.379 21.5996 67.5007 21.6062C62.4881 17.2775 55.8098 14.6346 48.4748 14.6346C38.6319 14.6346 29.9722 19.3948 24.9344 26.605C25.5954 26.6237 26.2184 26.6368 26.7475 26.6368C29.6945 26.6368 34.2562 26.2998 34.2562 26.2998C35.775 26.2154 35.9541 28.3181 34.4369 28.4874C34.4369 28.4874 32.9106 28.6567 31.2122 28.7406L41.4722 57.507L47.638 40.0763L43.2483 28.7396C41.7311 28.6557 40.2938 28.4864 40.2938 28.4864C38.7756 28.4025 38.9536 26.2144 40.4718 26.2988C40.4718 26.2988 45.1247 26.6358 47.8931 26.6358C50.8396 26.6358 55.4019 26.2988 55.4019 26.2988C56.9217 26.2144 57.1002 28.3171 55.5825 28.4864C55.5825 28.4864 54.053 28.6557 52.3578 28.7396L62.5396 57.2881L65.3498 48.4361C66.5679 44.7628 67.4948 42.1245 67.4948 39.8509Z" fill="white"/>
<path d="M48.9686 43.5172L40.5153 66.6713C43.0392 67.3707 45.7085 67.7532 48.4743 67.7532C51.7553 67.7532 54.9017 67.2186 57.8304 66.2478C57.7548 66.1341 57.6862 66.0133 57.6299 65.8819L48.9686 43.5172Z" fill="white"/>
<path d="M73.1966 28.4507C73.3177 29.2967 73.3863 30.2047 73.3863 31.1816C73.3863 33.8765 72.8524 36.906 71.2441 40.6941L62.6379 64.1483C71.0141 59.5442 76.648 50.9903 76.648 41.1928C76.6485 36.5755 75.3973 32.2337 73.1966 28.4507Z" fill="white"/>
<path d="M48.4745 10.2353C30.3654 10.2353 15.6316 24.1225 15.6316 41.1923C15.6316 58.2642 30.3654 72.1509 48.4745 72.1509C66.5832 72.1509 81.3191 58.2642 81.3191 41.1923C81.3186 24.1225 66.5832 10.2353 48.4745 10.2353ZM48.4745 70.7319C31.1958 70.7319 17.1375 57.4804 17.1375 41.1923C17.1375 24.9053 31.1953 11.6548 48.4745 11.6548C65.7527 11.6548 79.81 24.9053 79.81 41.1923C79.81 57.4804 65.7527 70.7319 48.4745 70.7319Z" fill="white"/>
</svg>
